<?xml version="1.0" encoding="utf-8"?>
<svg xmlns="http://www.w3.org/2000/svg" viewBox="164.6159 108.194 158.1515 123.607" width="158.151px" height="123.607px">
  <path d="M 305.242 149.396 C 308.216 149.396 311.074 149.788 313.76 150.509 L 313.76 149.396 C 313.76 138.018 303.296 128.795 290.403 128.795 L 260.202 128.795 C 258.653 128.788 257.166 128.246 256.076 127.284 L 239.562 112.726 C 236.277 109.822 231.815 108.194 227.175 108.194 L 196.974 108.194 C 184.073 108.194 173.617 117.417 173.617 128.795 L 173.617 150.509 C 176.373 149.767 179.246 149.39 182.135 149.396 L 305.242 149.396 Z M 182.135 159.697 C 171.476 159.697 163.285 168.02 164.796 177.332 L 171.468 218.534 C 172.698 226.143 180.087 231.794 188.807 231.801 L 298.578 231.801 C 307.29 231.794 314.679 226.143 315.917 218.534 L 322.589 177.332 C 324.092 168.02 315.909 159.697 305.25 159.697 L 182.135 159.697 Z" style="fill: rgb(79, 79, 79);" transform="matrix(1, 0, 0, 1, 1.4210854715202004e-14, -8.881784197001252e-16)"/>
</svg>